<svg xmlns="http://www.w3.org/2000/svg" xmlns:xlink="http://www.w3.org/1999/xlink"><symbol id="icon-academy" viewBox="0 0 32 32">
  <path d="M16 0l-12.635 1.323v23.161l12.635 7.516 12.635-7.516v-23.161l-12.505-1.307zM26.979 23.542l-10.979 6.536-10.979-6.536v-9.49l10.932 6.505 0.016 1.182-7.5-4.469-0.010 1.151 7.531 4.526 0.021 1.208-7.531-4.479-0.010 1.146 7.531 4.526 7.604-4.552v-1.151l-0.010 0.005v-3.74l3.385-2.021zM26.974 12.661l-4.391 2.589-6.615-3.938-0.010 1.146 5.651 3.359-0.047 0.031-0.125 0.073-0.802 0.474-4.667-2.776-0.010 1.141 3.682 2.193-0.87 0.583-0.021 0.010-2.781-1.641-0.010 1.146 1.823 1.078-1.859 1.115-10.88-6.469 10.896-6.547zM26.979 11.51l-11.042-6.51-10.917 6.5v-8.688l10.979-1.151 10.984 1.151v8.693z"/>
</symbol><symbol id="icon-add" viewBox="0 0 15 15"><path d="M7.5,0C3.364,0,0,3.364,0,7.5S3.364,15,7.5,15S15,11.636,15,7.5S11.636,0,7.5,0z M7.5,14C3.916,14,1,11.084,1,7.5  S3.916,1,7.5,1S14,3.916,14,7.5S11.084,14,7.5,14z"/><polygon points="8,3.5 7,3.5 7,7 3.5,7 3.5,8 7,8 7,11.5 8,11.5 8,8 11.5,8 11.5,7 8,7 "/></symbol><symbol id="icon-copyright" viewBox="0 0 24 24">
  <path d="M10.08,10.86C10.13,10.53 10.24,10.24 10.38,10C10.5,9.74 10.72,9.53 10.97,9.37C11.21,9.22 11.5,9.15 11.88,9.14C12.11,9.15 12.32,9.19 12.5,9.27C12.71,9.36 12.89,9.5 13.03,9.63C13.17,9.78 13.28,9.96 13.37,10.16C13.46,10.36 13.5,10.58 13.5,10.8H15.3C15.28,10.33 15.19,9.9 15,9.5C14.85,9.12 14.62,8.78 14.32,8.5C14,8.22 13.66,8 13.24,7.84C12.82,7.68 12.36,7.61 11.85,7.61C11.2,7.61 10.63,7.72 10.15,7.95C9.67,8.18 9.27,8.5 8.95,8.87C8.63,9.26 8.39,9.71 8.24,10.23C8.09,10.75 8,11.29 8,11.87V12.14C8,12.72 8.08,13.26 8.23,13.78C8.38,14.3 8.62,14.75 8.94,15.13C9.26,15.5 9.66,15.82 10.14,16.04C10.62,16.26 11.19,16.38 11.84,16.38C12.31,16.38 12.75,16.3 13.16,16.15C13.57,16 13.93,15.79 14.24,15.5C14.55,15.25 14.8,14.94 15,14.58C15.16,14.22 15.27,13.84 15.28,13.43H13.5C13.5,13.64 13.43,13.83 13.34,14C13.25,14.19 13.13,14.34 13,14.47C12.83,14.6 12.66,14.7 12.46,14.77C12.27,14.84 12.07,14.86 11.86,14.87C11.5,14.86 11.2,14.79 10.97,14.64C10.72,14.5 10.5,14.27 10.38,14C10.24,13.77 10.13,13.47 10.08,13.14C10.03,12.81 10,12.47 10,12.14V11.87C10,11.5 10.03,11.19 10.08,10.86M12,2A10,10 0 0,0 2,12A10,10 0 0,0 12,22A10,10 0 0,0 22,12A10,10 0 0,0 12,2M12,20C7.59,20 4,16.41 4,12C4,7.59 7.59,4 12,4C16.41,4 20,7.59 20,12C20,16.41 16.41,20 12,20Z"/>
</symbol><symbol id="icon-git" viewBox="0 0 512 512">
<g>
	<path d="M256,0C114.609,0,0,114.609,0,256c0,141.391,114.609,256,256,256c141.391,0,256-114.609,256-256
		C512,114.609,397.391,0,256,0z M256,472c-119.297,0-216-96.703-216-216S136.703,40,256,40s216,96.703,216,216S375.297,472,256,472z
		"/>
	<path d="M336.005,128.769c-26.266,14.312-53.358,2.234-72.891,0c-86.234-9.891-113.641,77.734-50.812,112.859
		c-16.172,7.312-15.109,44.453,2.203,49.733c-40.812,4.078-48.391,54.188-26.5,74.625c26.625,24.845,108.531,23.188,132.547,0
		c16.767-16.219,19.109-49.625,4.422-65.03c-13.391-14.078-80.562-16.203-79.531-38.267c0.719-15.438,25.016-13,39.766-19.141
		c27.734-11.547,44.047-46.109,33.141-72.703c6.188-1,11.47-2.797,17.656-3.812C336.005,154.284,336.005,141.534,336.005,128.769z
		 M229.974,209.128c-32.328-61.344,74.344-56.953,41.984,0C261.35,215.972,240.458,216.659,229.974,209.128z M289.63,329.645
		c2.859,27.5-61.094,28.719-68.5,9.562c-6.219-16.142,1.531-20.72,19.891-24.875C261.816,309.611,287.708,311.236,289.63,329.645z"/>
</g>
<g>
</g>
<g>
</g>
<g>
</g>
<g>
</g>
<g>
</g>
<g>
</g>
<g>
</g>
<g>
</g>
<g>
</g>
<g>
</g>
<g>
</g>
<g>
</g>
<g>
</g>
<g>
</g>
<g>
</g>
</symbol><symbol id="icon-github2" viewBox="0 0 512 512">
<g>
	<path d="M117.639,124.36c-25.396,0-47.242,8.403-65.542,25.208c-19.043,17.926-28.57,40.33-28.57,67.218
		c0,17.926,5.188,34.731,15.647,50.416c9.337,14.563,19.09,23.903,31.889,28.012v1.121c-12.799,5.224-18.483,18.295-18.483,39.209
		c0,16.062,5.686,28.011,18.483,35.854v1.121c-35.327,11.571-51.496,33.047-51.496,64.413c0,27.269,11.874,47.244,35.033,59.939
		C72.895,506.959,96.389,512,124.773,512c69.085,0,103.703-28.941,103.703-86.832c0-36.223-26.661-58.441-80.064-66.658
		c-12.323-1.863-21.643-6.348-27.991-13.445c-4.854-4.854-7.271-9.709-7.271-14.562c0-13.815,7.479-21.848,22.41-24.088
		c22.779-3.356,41.364-13.912,55.743-31.647c14.375-17.74,21.565-38.56,21.565-62.458c0-7.469-2.259-15.498-5.244-24.086
		c9.709-2.244,16.525-4.297,21.646-6.166V124.36c-22.527,8.964-43.495,13.442-61.421,13.442
		C152.162,128.841,135.937,124.36,117.639,124.36z M123.801,403.885c31.372,0,47.052,9.521,47.052,28.57
		c0,20.168-14.377,30.246-43.132,30.246c-32.862,0-49.293-9.711-49.293-29.127C78.427,413.779,93.55,403.885,123.801,403.885z
		 M119.88,256c-23.527,0-35.293-12.882-35.293-38.654c0-27.631,11.766-41.453,35.293-41.453c11.201,0,19.979,4.298,26.326,12.884
		c5.229,7.845,7.845,17.18,7.845,28.011C154.051,242.927,142.658,256,119.88,256z M290.191,0c-10.828,0-20.069,4.107-27.728,12.324
		c-7.656,8.218-11.484,18.108-11.484,29.688c0,11.205,3.829,20.91,11.484,29.129c7.654,8.217,16.896,12.32,27.728,12.32
		c10.455,0,19.515-4.104,27.171-12.32c7.655-8.219,11.479-17.924,11.479-29.129c0-11.58-3.824-21.472-11.479-29.688
		C309.703,4.107,300.646,0,290.191,0z M321.565,127.999h-63.304c0.747,7.168-0.32,18.021-0.32,35.57v174.216
		c0,17.928,1.067,32.387,0.32,38.018h63.304c-0.75-8.188-2.697-22.334-2.697-41.379V162.451
		C318.865,146.019,320.815,135.167,321.565,127.999z M461.168,322.1c-16.437,0-24.541-12.514-24.541-37.533V181.247h24.932
		c4.479,0,8.517-0.246,13.56,0.123c5.043,0.374,7.076,0.125,9.64,0.125V128h-48.129v-23.808c0-8.961,1.407-17.151,2.526-22.271
		h-64.979c1.121,5.12,1.015,12.938,1.015,23.395V128h-28.16v53.494c7.683-1.12,14.545-1.678,19.397-1.678l8.763,0.559v0.292l0,0
		v101.101c0,31.371,3.979,54.336,11.817,68.9c10.461,19.42,28.812,29.129,56.067,29.129c19.425,0,36.56-3.732,49.356-11.205v-56.016
		C482.196,318.926,472.742,322.1,461.168,322.1z"/>
</g>
</symbol><symbol id="icon-github3" viewBox="0 0 30 30">
  <path d="M0 15c0 7.033 4.836 12.945 11.375 14.563.3.077.635-.19.625-.5V22.5c0-.333.197-.652.563-.844.37-.185.28-.856-.125-.937-1.9-.38-3.52-1.143-4.657-2.157C6.646 17.547 6 16.314 6 15c0-.915.327-1.793.906-2.594.06-.082.092-.18.094-.28V7.343l3.97 2.125c.122.066.273.077.405.03C12.488 9.168 13.698 9 15 9s2.512.168 3.625.5c.132.047.283.035.406-.03L23 7.343v4.78c.002.1.035.2.094.282.58.8.906 1.68.906 2.594 0 1.315-.645 2.548-1.78 3.563-1.138 1.014-2.76 1.776-4.657 2.156-.406.08-.495.75-.125.936.365.192.562.51.562.844v6.563c-.01.31.326.577.625.5C25.165 27.945 30 22.032 30 15c0-8.278-6.722-15-15-15C6.722 0 0 6.722 0 15zM15 1c7.738 0 14 6.262 14 14 0 6.33-4.24 11.547-10 13.28V22.5c0-.4-.154-.756-.375-1.063 1.663-.457 3.182-1.175 4.28-2.156C24.206 18.124 25 16.64 25 15c0-1.083-.394-2.074-1-2.97V6.5c.003-.35-.446-.613-.75-.437L18.656 8.53C17.516 8.22 16.296 8 15 8c-1.295 0-2.517.218-3.656.53L6.75 6.064c-.304-.176-.753.087-.75.437v5.53c-.606.896-1 1.887-1 2.97 0 1.64.795 3.123 2.094 4.28 1.1.982 2.62 1.7 4.28 2.158-.22.306-.374.66-.374 1.062v1.688c-1.09.406-1.807.493-2.25.406-.478-.094-.736-.34-1.03-.75-.592-.823-1.173-2.34-3.095-2.836-.654-.175-.875.8-.25.97 1.508.39 1.805 1.448 2.53 2.46.364.505.886.973 1.658 1.125.643.126 1.422.03 2.437-.313v3.03C5.242 26.548 1 21.33 1 15 1 7.262 7.262 1 15 1z"/>
</symbol><symbol id="icon-mail" viewBox="0 0 128 128">
  <path d="M116.73,31.83a3,3,0,0,0-4.2-.61L64.14,67.34a1,1,0,0,1-1.2,0L15.5,31.06a3,3,0,1,0-3.64,4.77L49.16,64.36,12.27,92.16A3,3,0,1,0,15.88,97L54.11,68.14l5.18,4a7,7,0,0,0,8.43.06l5.44-4.06L111.84,97a3,3,0,1,0,3.59-4.81L78.17,64.35,116.12,36A3,3,0,0,0,116.73,31.83Z"/>
  <path d="M113,19H15A15,15,0,0,0,0,34V94a15,15,0,0,0,15,15h98a15,15,0,0,0,15-15V34A15,15,0,0,0,113,19Zm9,75a9,9,0,0,1-9,9H15a9,9,0,0,1-9-9V34a9,9,0,0,1,9-9h98a9,9,0,0,1,9,9Z"/>
</symbol><symbol id="icon-phone" viewBox="0 0 24 24">
  <path d="M20.741,17.218l-0.13-0.162c-1.029-1.301-1.889-1.978-2.627-2.067c-0.638-0.087-1.255,0.354-1.911,0.808l-0.701,0.438
	c-0.084,0.042-0.167,0.076-0.245,0.099c-0.41,0.116-1.445,0.184-2.031-0.352c-0.682-0.624-1.74-1.766-2.563-2.764
	c-0.786-1.033-1.65-2.321-2.101-3.132C8.051,9.399,8.37,8.438,8.583,8.082c0.042-0.07,0.097-0.139,0.158-0.207l0.618-0.571
	c0.009-0.009,0.013-0.02,0.021-0.028C9.386,7.27,9.396,7.272,9.403,7.267c0.558-0.471,1.135-0.956,1.214-1.579
	c0.093-0.732-0.362-1.722-1.393-3.022L9.098,2.504C8.46,1.686,7.495,0.449,6.109,0.653C5.564,0.734,5.077,0.92,4.575,1.235
	C4.57,1.238,4.567,1.244,4.563,1.247C4.559,1.25,4.554,1.25,4.55,1.253L3.851,1.771C3.844,1.775,3.84,1.784,3.833,1.79
	C3.828,1.795,3.82,1.796,3.814,1.801c-0.081,0.068-0.162,0.138-0.242,0.21C2.863,2.643,1.328,4.478,2.375,7.872
	c0.676,2.192,2.07,4.75,4.041,7.412L6.397,15.3l1.087,1.354l0.009-0.007c2.137,2.528,4.312,4.482,6.305,5.665
	c1.33,0.79,2.492,1.051,3.448,1.051c1.258,0,2.159-0.452,2.611-0.746l0.284-0.19c0.032-0.022,0.055-0.053,0.078-0.081l0.619-0.466
	c0.007-0.006,0.011-0.014,0.018-0.02c0.003-0.003,0.008-0.002,0.012-0.005c0.44-0.402,0.745-0.823,0.957-1.322
	C22.374,19.254,21.391,18.029,20.741,17.218z M21.09,20.219c-0.165,0.388-0.406,0.718-0.754,1.038l-0.921,0.693
	c-0.834,0.542-2.617,1.212-5.207-0.326c-1.993-1.183-4.187-3.183-6.346-5.784l-0.584-0.738c-2.033-2.696-3.463-5.278-4.138-7.466
	c-0.877-2.845,0.228-4.371,0.968-5.03c0.075-0.068,0.15-0.131,0.224-0.194l0.003-0.003l0.671-0.497
	C5.414,1.654,5.792,1.51,6.227,1.444c0.929-0.14,1.685,0.84,2.24,1.552l0.13,0.165C9.749,4.614,9.86,5.305,9.824,5.587
	c-0.04,0.313-0.516,0.714-0.936,1.067l-0.059,0.05C8.827,6.706,8.826,6.709,8.824,6.711C8.821,6.713,8.818,6.714,8.815,6.716
	L8.176,7.307C8.172,7.311,8.17,7.316,8.166,7.321S8.154,7.328,8.15,7.333C8.051,7.444,7.966,7.555,7.897,7.67
	c-0.359,0.601-0.698,1.843-0.163,2.804c0.467,0.84,1.356,2.167,2.173,3.239c0.854,1.036,1.943,2.212,2.649,2.857
	c0.529,0.483,1.265,0.645,1.902,0.645c0.341,0,0.654-0.047,0.891-0.114c0.125-0.036,0.254-0.088,0.387-0.153
	c0.008-0.004,0.012-0.011,0.02-0.016c0.004-0.002,0.01-0.001,0.014-0.004l0.742-0.464c0.024-0.016,0.04-0.037,0.06-0.057l0.009,0.01
	c0.457-0.317,0.978-0.689,1.304-0.635c0.289,0.035,0.945,0.313,2.099,1.77l0.133,0.167C20.679,18.42,21.449,19.38,21.09,20.219z"/>
</symbol><symbol id="icon-skype" viewBox="0 0 512 512">
  <g>
    <path d="M29.2,250.2c0.5-5.5,1.5-16.1,2.3-26.7c0.2-2.5-0.1-5.3-1.2-7.5c-40.1-80,2.5-175.4,89-198.3c34.2-9.1,67.3-5,99.1,10.8   c2.5,1.2,5.7,1.9,8.4,1.6c64-7.1,121.8,8.3,172,48.9c46.8,37.9,74.2,87.2,82.4,147.1c2.7,19.8,2.5,39.5,0.1,59.3   c-0.4,3,0.3,6.7,1.8,9.3c48.3,84.7-2.9,192-99.2,207.1c-33.8,5.3-65.6-1.2-95-18.9c-2.2-1.3-5.3-2.1-7.8-1.9   c-96.7,9.3-184.7-39-228.4-125.4C37.7,325.9,29.7,291.5,29.2,250.2z M48.6,255.4c0.7,50.2,18.1,98.3,52.2,136.2   c48.8,54.2,110.1,76.8,182.6,68.7c4.5-0.5,8.2,0.2,12.1,2.8c31.2,20.6,65,25.9,100.7,15.4c75.5-22.3,108.7-110.1,67.3-177.3   c-2.2-3.5-4.2-6.8-3.4-11.5c4.8-26.9,3.9-53.7-2.1-80.4C434.7,106.6,336.5,35.1,227,50.4c-5.8,0.8-10.5,0-15.6-2.7   c-53.4-29.1-120-14-154.5,36.1c-27.9,40.6-29.2,83.4-6.7,127c1.6,3.2,2.5,6.1,2,9.8C50.7,232.2,49.7,243.8,48.6,255.4z"/>
    <path d="M253.5,383.1c-20.5-0.2-40.5-2.7-59.5-11c-11.6-5.1-22-11.9-30.6-21.2c-7.9-8.5-12.7-18.3-12.7-30.1   c-0.1-18.8,18.7-30.1,35.1-20.8c3.9,2.2,7.3,5.8,10.5,9.1c3.4,3.5,6.4,7.2,9.3,11.1c13.6,18,32.6,22.4,53.7,21.2   c10-0.5,19.3-3.3,27.5-9.4c9.4-7.1,14.2-16.3,12.1-28.2c-2-11.3-10.2-16.9-20.3-19.7c-19.6-5.4-39.3-10.2-59-15.1   c-15.4-3.9-30.5-8.2-43.6-17.8c-15.7-11.4-24-27-25-46.2c-1.8-35.4,13.7-60.3,47.4-72.7c40.7-15,80.8-12.7,118.9,9.2   c7.1,4.1,13.6,9.7,19.2,15.7c4,4.3,6.8,10.4,8.4,16.1c3.3,11.6-0.1,20.3-8.8,25.8c-9.8,6.2-22.2,6-30.8-1.3   c-5.7-4.8-10.7-10.5-15.9-15.9c-5.8-6-12.8-10.1-20.8-12.3c-13.8-3.8-27.6-4.4-41.4-0.5c-8.5,2.4-15.4,7.1-19.4,15.3   c-5.3,10.7-3.2,21,7.1,26.9c7.9,4.6,16.8,8.1,25.7,10.4c18.6,4.9,37.7,8.4,56.3,13.3c8.9,2.4,17.8,5.8,25.9,10.3   c26.9,14.9,36,40,32.8,68.5c-3.7,32.5-24.9,55.3-59.5,63.9c-13.8,3.4-28.2,4.5-42.3,6.6C253.6,384,253.6,383.5,253.5,383.1z"/>
  </g>
</symbol><symbol id="icon-telegram" viewBox="0 0 32 32">
  <g id="telegram">
    <path d="M12.408,28.188c-0.865,0-0.717-0.327-1.016-1.148l-2.54-8.362L28.408,7.076L12.408,28.188z" fill="#eae5e5"/>
    <path d="M12.408,28.188c0.667,0,0.962-0.305,1.333-0.667l3.556-3.458l-4.436-2.674L12.408,28.188z" fill="#CFD8DC"/>
    <path d="M12.861,21.391l10.747,7.94c1.228,0.676,2.111,0.326,2.417-1.139L30.4,7.577    c0.448-1.796-0.684-2.61-1.858-2.078L2.854,15.405c-1.754,0.703-1.742,1.682-0.32,2.117l6.592,2.058l15.261-9.628    c0.721-0.437,1.382-0.202,0.84,0.28L12.861,21.391z" fill="#eae5e5"/>
    <path d="M24.687,30.163c-0.402,0-0.843-0.132-1.32-0.395l-10.803-7.976c-0.121-0.089-0.195-0.228-0.203-0.378    c-0.007-0.15,0.053-0.295,0.165-0.396L25.322,9.503c0.205-0.185,0.521-0.169,0.706,0.037c0.185,0.205,0.168,0.521-0.037,0.706    l-12.34,11.106l10.254,7.576c0.271,0.145,0.729,0.329,1.055,0.178c0.332-0.152,0.496-0.637,0.576-1.017l4.375-20.617    c0.17-0.681,0.088-1.229-0.215-1.481c-0.231-0.192-0.575-0.206-0.947-0.038L3.033,15.871C2.244,16.188,1.996,16.514,2,16.622    c0.003,0.071,0.173,0.267,0.68,0.422l6.375,1.99l6.999-4.416c0.234-0.146,0.542-0.077,0.689,0.156    c0.147,0.233,0.078,0.542-0.156,0.689l-7.194,4.539C9.269,20.08,9.116,20.1,8.977,20.057l-6.592-2.058    c-1.17-0.358-1.37-0.99-1.384-1.335c-0.02-0.473,0.253-1.157,1.667-1.723l25.695-9.908c0.697-0.318,1.445-0.25,1.974,0.191    c0.613,0.511,0.813,1.413,0.549,2.474l-4.371,20.598c-0.184,0.878-0.566,1.457-1.137,1.719    C25.163,30.114,24.933,30.163,24.687,30.163z" fill="#000000"/>
  </g>
  <g>
    <path d="M24.687,30.163c-0.402,0-0.843-0.132-1.32-0.395l-6.72-4.959c-0.222-0.164-0.27-0.478-0.105-0.699   c0.164-0.222,0.478-0.27,0.699-0.105l6.664,4.923c0.271,0.145,0.729,0.329,1.055,0.178c0.332-0.152,0.496-0.637,0.576-1.017   l4.375-20.617c0.17-0.681,0.088-1.229-0.215-1.481c-0.231-0.192-0.575-0.206-0.947-0.038L3.033,15.871   C2.244,16.188,1.996,16.514,2,16.622c0.003,0.071,0.173,0.267,0.68,0.422l6.594,2.058c0.158,0.049,0.281,0.174,0.33,0.332   l2.267,7.461c0.061,0.167,0.108,0.333,0.149,0.477c0.032,0.114,0.072,0.256,0.099,0.298c-0.004-0.005,0.076,0.019,0.289,0.02   c0.447,0,0.617-0.167,0.957-0.498l1.66-1.614c0.198-0.194,0.514-0.188,0.707,0.01c0.192,0.198,0.188,0.515-0.01,0.707L14.09,27.88   c-0.402,0.393-0.828,0.809-1.682,0.809c-0.98,0-1.178-0.434-1.351-1.046c-0.035-0.124-0.075-0.267-0.135-0.432l-2.198-7.233   l-6.339-1.979c-1.17-0.358-1.37-0.99-1.384-1.335c-0.02-0.473,0.253-1.157,1.667-1.723l25.695-9.908   c0.697-0.318,1.445-0.25,1.974,0.191c0.613,0.511,0.813,1.413,0.549,2.474l-4.371,20.598c-0.184,0.878-0.566,1.457-1.137,1.719   C25.163,30.114,24.933,30.163,24.687,30.163z" fill="#000000"/>
    <path d="M18.5,14c0,0.275-0.225,0.5-0.5,0.5l0,0c-0.275,0-0.5-0.225-0.5-0.5l0,0c0-0.275,0.225-0.5,0.5-0.5         l0,0C18.275,13.5,18.5,13.725,18.5,14L18.5,14z" fill="#000000"/>
  </g>
</symbol><symbol id="icon_earth" viewBox="0.2 0.3 200 200">
    <g>
        <path d="M90.6 46.6C79.8 48.5 70.2 55 62.7 61H79c3.2-3 7.1-10.3 11.6-14.4z"/>
        <path d="M75.8 67H57.3C51 77 47.1 85 46.7 97h22.1c.2-12 2.7-20 7-30z"/>
        <path d="M68.8 102h-22c.7 11 3.9 18 8.8 26h19.1c-3.4-8-5.4-15-5.9-26z"/>
        <path d="M118.5 128c3.7-8 6-15 6.5-26H75c.5 11 2.8 18 6.5 26h37z"/>
        <path d="M137.3 61c-7.5-6-17.2-12.5-27.9-14.4 4.5 4.2 8.4 11.4 11.6 14.4h16.3z"/>
        <path d="M117.3 67H82.6c-4.7 10-7.4 18-7.7 30H125c-.3-12-3-20-7.7-30z"/>
        <path d="M113.6 61c-3.8-6-8.4-10.4-13.7-14.2C94.7 50.6 90 55 86.3 61h27.3z"/>
        <path d="M131.2 97h22.1c-.4-12-4.3-20-10.6-30h-18.5c4.2 10 6.7 18 7 30z"/>
        <path d="M100.2.3C45 .3.2 45 .2 100.3c0 55.2 44.8 100 100 100s100-44.8 100-100c0-55.3-44.7-100-100-100zm-.2 158.3c-32.8 0-59.5-26.7-59.5-59.5S67.2 39.6 100 39.6s59.5 26.7 59.5 59.5c-.1 32.8-26.8 59.5-59.5 59.5z"/>
        <path d="M77.7 134H60.5c7.8 9 18.2 14.6 30.1 16.7-5.2-4.8-9.5-11.7-12.9-16.7z"/>
        <path d="M125.2 128h19.1c5-8 8.1-15 8.8-26h-22c-.5 11-2.5 18-5.9 26z"/>
        <path d="M84.8 134c4 8 9.1 12.2 15.2 16.5 6-4.4 11.1-8.5 15.2-16.5H84.8z"/>
        <path d="M109.4 150.7c11.8-2.1 22.3-7.7 30.1-16.7h-17.2c-3.5 5-7.8 11.9-12.9 16.7z"/>
    </g>
</symbol><symbol id="icon_exclamation-point" viewBox="0.4 0.1 200 200">
    <g>
        <path d="M105.9 113l2.2-70H95.2l2.2 70h8.5z"/>
        <path d="M100.7 140.2c-4.8 0-8.7 3.9-8.7 8.7 0 4.8 3.9 8.7 8.7 8.7s8.7-3.9 8.7-8.7c-.1-4.8-3.9-8.7-8.7-8.7z"/>
        <path d="M100.4.1C45.2.1.4 44.9.4 100.1s44.8 100 100 100 100-44.8 100-100S155.6.1 100.4.1zM88.8 36.8c.7-.7 1.6-.8 2.6-.8h20.5c1 0 1.9.1 2.6.8.7.7 1.1 1.5 1 2.5l-2.5 76.9c-.1 2-1.7 3.7-3.7 3.7H93.9c-2 0-3.6-1.8-3.7-3.8l-2.5-76.7c0-.9.4-1.9 1.1-2.6zm11.9 128c-8.8 0-16-7.2-16-16s7.2-16 16-16 16 7.2 16 16-7.2 16-16 16z"/>
    </g>
</symbol></svg>